<svg id="Layer_1" data-name="Layer 1" xmlns="http://www.w3.org/2000/svg" viewBox="0 0 564.93 365.6"><title>welcome-text</title><path d="M71.84,66.06H52.15L45.07,26h-.18l-6.9,40H18.2L.36.37H20.23l8,40.57h.18L36.33.37H54.17L61.9,41.5h.18L70.27.37h20Z" transform="translate(-0.36 -0.37)" style="fill:#fff"/><path d="M193.28.37h20.24V66.06H193.28Z" transform="translate(-0.36 -0.37)" style="fill:#fff"/><path d="M338.91.37h20.24V49.22h29.07V66.06H338.91Z" transform="translate(-0.36 -0.37)" style="fill:#fff"/><path d="M499,.37h20.24V49.22H548.3V66.06H499Z" transform="translate(-0.36 -0.37)" style="fill:#fff"/><path d="M13.42,150.33H33.66V173h.18l18-22.63H76.8L53,176l27.69,40H55.46L39.27,190.44l-5.61,6.16V216H13.42Z" transform="translate(-0.36 -0.37)" style="fill:#fff"/><path d="M203.12,148.77c20,0,33.3,14.35,33.3,34.41s-13.34,34.41-33.3,34.41-33.3-14.35-33.3-34.41S183.16,148.77,203.12,148.77Zm0,52.44c5.15,0,13.06-3.4,13.06-18s-7.91-18-13.06-18-13.06,3.4-13.06,18S198,201.21,203.12,201.21Z" transform="translate(-0.36 -0.37)" style="fill:#fff"/><path d="M324,150.33h28.79L362.19,189h.18l9.38-38.64h28.79V216H381.42V173.88h-.18L369.82,216H354.74l-11.41-42.13h-.18V216H324Z" transform="translate(-0.36 -0.37)" style="fill:#fff"/><path d="M483.54,150.33h28.79L521.72,189h.18l9.38-38.64h28.79V216H540.94V173.88h-.18L529.35,216H514.26l-11.41-42.13h-.18V216H483.54Z" transform="translate(-0.36 -0.37)" style="fill:#fff"/><path d="M15.81,300.29H70.18v16.83H36.05v8.19h31V341h-31v8.19H71.19V366H15.81Z" transform="translate(-0.36 -0.37)" style="fill:#fff"/><path d="M174.42,300.29h20.7l19.13,35.14h.18V300.29h19.14V366H213.89L193.74,330.1h-.18V366H174.42Z" transform="translate(-0.36 -0.37)" style="fill:#fff"/><line x1="314.93" y1="334.13" x2="564.93" y2="334.13" style="fill:none;stroke:#fff;stroke-width:18px"/></svg>